<svg width="26" height="26" xmlns="http://www.w3.org/2000/svg" fill="none">

 <g>
  <title>Layer 1</title>
  <circle id="svg_1" fill="#131313" r="13" cy="13" cx="13"/>
  <path id="svg_2" fill="#CDCDCD" d="m11.416,14.864l-0.064,-2.576l0.496,0c0.5973,0 1.152,-0.0587 1.664,-0.176c0.5227,-0.1173 0.944,-0.3467 1.264,-0.688c0.32,-0.3413 0.48,-0.8533 0.48,-1.536c0,-0.66133 -0.208,-1.184 -0.624,-1.568c-0.4053,-0.384 -0.944,-0.576 -1.616,-0.576c-0.6827,0 -1.2213,0.18667 -1.616,0.56c-0.3947,0.37333 -0.592,0.87467 -0.592,1.504l-1.28,0c0,-0.64 0.144,-1.2 0.432,-1.68c0.2987,-0.48 0.7093,-0.85333 1.232,-1.12c0.5227,-0.26667 1.1307,-0.4 1.824,-0.4c0.6933,0 1.3067,0.13333 1.84,0.4c0.5333,0.26667 0.9493,0.64533 1.248,1.136c0.2987,0.49067 0.448,1.072 0.448,1.744c0,0.7893 -0.1707,1.4293 -0.512,1.92c-0.3307,0.4907 -0.7947,0.848 -1.392,1.072c-0.5867,0.224 -1.2587,0.336 -2.016,0.336l-0.048,1.648l-1.168,0zm0.576,3.216c-0.2667,0 -0.4907,-0.0853 -0.672,-0.256c-0.1707,-0.1813 -0.256,-0.4 -0.256,-0.656c0,-0.256 0.0853,-0.4693 0.256,-0.64c0.1813,-0.1813 0.4053,-0.272 0.672,-0.272c0.2667,0 0.4853,0.0907 0.656,0.272c0.1707,0.1707 0.256,0.384 0.256,0.64c0,0.256 -0.0853,0.4747 -0.256,0.656c-0.1707,0.1707 -0.3893,0.256 -0.656,0.256z"/>
 </g>
</svg>