<svg width="772" height="151" viewBox="0 0 772 151" fill="none" xmlns="http://www.w3.org/2000/svg">
<path d="M6.12 54V19.456L5.44 14.016H49.232V23.264H19.38V29.452H41.888V38.904H19.38V54H6.12ZM61.5496 20.612C56.9709 20.612 54.6816 18.6627 54.6816 14.764C54.6816 12.588 55.2482 11.092 56.3816 10.276C57.5602 9.41466 59.2829 8.984 61.5496 8.984C63.9522 8.984 65.6976 9.41466 66.7856 10.276C67.9189 11.092 68.4856 12.588 68.4856 14.764C68.4856 18.6627 66.1736 20.612 61.5496 20.612ZM55.2936 54V23.536H67.6696V54H55.2936ZM97.674 65.968C93.0047 65.968 89.1967 65.8773 86.25 65.696C83.3034 65.56 81.0367 65.356 79.45 65.084C77.8634 64.812 76.7754 64.4947 76.186 64.132C75.5967 63.8147 75.302 63.4973 75.302 63.18L78.702 56.04C79.2007 56.176 80.3114 56.4253 82.034 56.788C83.7567 57.196 86.2727 57.4 89.582 57.4H99.85C101.029 57.4 101.867 57.196 102.366 56.788C102.91 56.38 103.159 55.6773 103.114 54.68V51.892C101.709 52.3 99.7367 52.64 97.198 52.912C94.7047 53.1387 91.7807 53.252 88.426 53.252H86.454C83.462 53.252 81.218 52.844 79.722 52.028C78.2714 51.1667 77.2967 49.988 76.798 48.492C76.3447 46.996 76.118 45.2053 76.118 43.12V33.6C76.118 32.512 76.2314 31.3787 76.458 30.2C76.73 29.0213 77.206 27.9333 77.886 26.936C78.6114 25.9387 79.654 25.1227 81.014 24.488C82.4194 23.8533 84.2327 23.536 86.454 23.536H88.494C91.6674 23.536 94.2514 23.5813 96.246 23.672C98.2407 23.7627 99.8274 23.876 101.006 24.012C102.23 24.148 103.25 24.284 104.066 24.42L105.834 23.536H115.49V55.904C115.49 58.896 114.538 61.3213 112.634 63.18C110.73 65.0387 107.557 65.968 103.114 65.968H97.674ZM91.962 44.684H101.006C102.049 44.684 102.661 44.5933 102.842 44.412C103.023 44.2307 103.114 43.6413 103.114 42.644V32.58C102.117 32.4893 101.142 32.4213 100.19 32.376C99.2834 32.2853 98.2407 32.2173 97.062 32.172C95.9287 32.1267 94.478 32.104 92.71 32.104H91.962C89.786 32.104 88.698 33.0107 88.698 34.824V41.964C88.6527 43.7773 89.7407 44.684 91.962 44.684ZM123.678 54V9.936H136.258V24.896C138.207 24.5333 140.519 24.216 143.194 23.944C145.868 23.672 148.384 23.536 150.742 23.536H154.142C156.408 23.536 158.154 23.8533 159.378 24.488C160.602 25.1227 161.463 25.916 161.962 26.868C162.506 27.82 162.823 28.7947 162.914 29.792C163.05 30.744 163.118 31.56 163.118 32.24V54H150.674V34.824C150.674 33.0107 149.586 32.104 147.41 32.104H138.298C137.436 32.104 136.87 32.1947 136.598 32.376C136.371 32.512 136.258 32.92 136.258 33.6V54H123.678ZM182.791 54C179.346 54 176.988 53.2747 175.719 51.824C174.45 50.3733 173.815 48.1973 173.815 45.296V32.104H168.239V23.536H171.095C171.866 23.536 172.478 23.4 172.931 23.128C173.43 22.8107 173.747 22.2667 173.883 21.496L175.175 14.22H186.327V23.536H197.683V32.104H186.327V42.644C186.327 43.7773 186.599 44.5253 187.143 44.888C187.687 45.2507 188.503 45.432 189.591 45.432H196.391L197.751 53.32C196.799 53.456 195.348 53.6147 193.399 53.796C191.45 53.932 189.319 54 187.007 54H182.791ZM229.939 54C226.494 54 224.137 53.2747 222.867 51.824C221.598 50.3733 220.963 48.1973 220.963 45.296V32.104H215.387V23.536H218.243C219.014 23.536 219.626 23.4 220.079 23.128C220.578 22.8107 220.895 22.2667 221.031 21.496L222.323 14.22H233.475V23.536H244.831V32.104H233.475V42.644C233.475 43.7773 233.747 44.5253 234.291 44.888C234.835 45.2507 235.651 45.432 236.739 45.432H243.539L244.899 53.32C243.947 53.456 242.497 53.6147 240.547 53.796C238.598 53.932 236.467 54 234.155 54H229.939ZM250.314 54V9.936H262.894V24.896C264.844 24.5333 267.156 24.216 269.83 23.944C272.505 23.672 275.021 23.536 277.378 23.536H280.778C283.045 23.536 284.79 23.8533 286.014 24.488C287.238 25.1227 288.1 25.916 288.598 26.868C289.142 27.82 289.46 28.7947 289.55 29.792C289.686 30.744 289.754 31.56 289.754 32.24V54H277.31V34.824C277.31 33.0107 276.222 32.104 274.046 32.104H264.934C264.073 32.104 263.506 32.1947 263.234 32.376C263.008 32.512 262.894 32.92 262.894 33.6V54H250.314ZM308 54C305.008 54 302.696 53.5693 301.064 52.708C299.477 51.8467 298.389 50.668 297.8 49.172C297.21 47.6307 296.916 45.8627 296.916 43.868V33.6C296.916 31.7867 297.21 30.132 297.8 28.636C298.434 27.0947 299.545 25.8707 301.132 24.964C302.718 24.012 305.008 23.536 308 23.536H322.076C325.612 23.536 328.309 23.9667 330.168 24.828C332.072 25.644 333.364 26.8227 334.044 28.364C334.769 29.86 335.132 31.6053 335.132 33.6V42.304H323.232C319.152 42.304 316.046 42.2133 313.916 42.032C311.83 41.8507 310.357 41.7373 309.496 41.692V42.712C309.45 44.5253 310.538 45.432 312.76 45.432H314.868C318.494 45.432 321.849 45.364 324.932 45.228C328.014 45.0467 330.304 44.888 331.8 44.752L335.88 51.212C335.88 51.6653 335.494 52.096 334.724 52.504C333.953 52.912 332.593 53.2747 330.644 53.592C328.74 53.864 326.02 54 322.484 54H308ZM309.496 35.776H322.552V34.824C322.552 33.9173 322.461 33.2827 322.28 32.92C322.144 32.5573 321.668 32.3307 320.852 32.24C320.036 32.1493 318.653 32.104 316.704 32.104H312.76C310.584 32.104 309.496 33.0107 309.496 34.824V35.776ZM365.311 54C362.274 54 360.12 53.8413 358.851 53.524C357.582 53.2067 356.947 52.8893 356.947 52.572L359.667 45.432C360.211 45.568 361.82 45.7267 364.495 45.908C367.215 46.044 371.159 46.112 376.327 46.112H381.155C382.288 46.112 382.991 45.9987 383.263 45.772C383.58 45.5 383.739 45.0467 383.739 44.412C383.739 43.6413 383.558 43.1653 383.195 42.984C382.878 42.7573 382.198 42.644 381.155 42.644H367.351C364.042 42.644 361.48 42.032 359.667 40.808C357.854 39.5387 356.947 37.2947 356.947 34.076V32.716C356.947 31.0387 357.174 29.52 357.627 28.16C358.08 26.7547 359.055 25.644 360.551 24.828C362.047 23.9667 364.314 23.536 367.351 23.536H387.479C390.199 23.536 392.126 23.6947 393.259 24.012C394.392 24.3293 394.959 24.6467 394.959 24.964L394.279 32.172C393.554 32.036 391.718 31.9 388.771 31.764C385.87 31.5827 381.858 31.492 376.735 31.492H371.907C370.774 31.492 370.048 31.628 369.731 31.9C369.459 32.1267 369.323 32.5347 369.323 33.124C369.323 33.7133 369.459 34.144 369.731 34.416C370.048 34.6427 370.774 34.756 371.907 34.756H385.983C389.519 34.756 392.126 35.5267 393.803 37.068C395.48 38.6093 396.319 40.7627 396.319 43.528V44.82C396.319 46.452 396.115 47.9707 395.707 49.376C395.299 50.736 394.37 51.8467 392.919 52.708C391.468 53.5693 389.156 54 385.983 54H365.311ZM407.995 67.328C405.502 67.328 403.235 67.0787 401.195 66.58C399.155 66.1267 397.75 65.6733 396.979 65.22L399.699 56.856C401.059 57.4453 402.51 57.8987 404.051 58.216C405.638 58.5333 407.134 58.692 408.539 58.692H409.287C413.231 58.692 416.087 57.128 417.855 54H413.707L400.379 23.536H414.047L419.895 41.624L420.915 45.772H421.595L422.615 41.624L428.531 23.536H441.995L440.907 27.684C440.046 29.452 439.049 31.492 437.915 33.804C436.827 36.0707 435.694 38.428 434.515 40.876C433.337 43.324 432.181 45.6813 431.047 47.948C429.959 50.2147 428.985 52.232 428.123 54C425.902 58.5333 423.341 61.888 420.439 64.064C417.538 66.24 414.002 67.328 409.831 67.328H407.995ZM454.428 54C451.391 54 449.237 53.8413 447.968 53.524C446.699 53.2067 446.064 52.8893 446.064 52.572L448.784 45.432C449.328 45.568 450.937 45.7267 453.612 45.908C456.332 46.044 460.276 46.112 465.444 46.112H470.272C471.405 46.112 472.108 45.9987 472.38 45.772C472.697 45.5 472.856 45.0467 472.856 44.412C472.856 43.6413 472.675 43.1653 472.312 42.984C471.995 42.7573 471.315 42.644 470.272 42.644H456.468C453.159 42.644 450.597 42.032 448.784 40.808C446.971 39.5387 446.064 37.2947 446.064 34.076V32.716C446.064 31.0387 446.291 29.52 446.744 28.16C447.197 26.7547 448.172 25.644 449.668 24.828C451.164 23.9667 453.431 23.536 456.468 23.536H476.596C479.316 23.536 481.243 23.6947 482.376 24.012C483.509 24.3293 484.076 24.6467 484.076 24.964L483.396 32.172C482.671 32.036 480.835 31.9 477.888 31.764C474.987 31.5827 470.975 31.492 465.852 31.492H461.024C459.891 31.492 459.165 31.628 458.848 31.9C458.576 32.1267 458.44 32.5347 458.44 33.124C458.44 33.7133 458.576 34.144 458.848 34.416C459.165 34.6427 459.891 34.756 461.024 34.756H475.1C478.636 34.756 481.243 35.5267 482.92 37.068C484.597 38.6093 485.436 40.7627 485.436 43.528V44.82C485.436 46.452 485.232 47.9707 484.824 49.376C484.416 50.736 483.487 51.8467 482.036 52.708C480.585 53.5693 478.273 54 475.1 54H454.428ZM504.728 54C501.283 54 498.926 53.2747 497.656 51.824C496.387 50.3733 495.752 48.1973 495.752 45.296V32.104H490.176V23.536H493.032C493.803 23.536 494.415 23.4 494.868 23.128C495.367 22.8107 495.684 22.2667 495.82 21.496L497.112 14.22H508.264V23.536H519.62V32.104H508.264V42.644C508.264 43.7773 508.536 44.5253 509.08 44.888C509.624 45.2507 510.44 45.432 511.528 45.432H518.328L519.688 53.32C518.736 53.456 517.286 53.6147 515.336 53.796C513.387 53.932 511.256 54 508.944 54H504.728ZM535.507 54C532.515 54 530.203 53.5693 528.571 52.708C526.985 51.8467 525.897 50.668 525.307 49.172C524.718 47.6307 524.423 45.8627 524.423 43.868V33.6C524.423 31.7867 524.718 30.132 525.307 28.636C525.942 27.0947 527.053 25.8707 528.639 24.964C530.226 24.012 532.515 23.536 535.507 23.536H549.583C553.119 23.536 555.817 23.9667 557.675 24.828C559.579 25.644 560.871 26.8227 561.551 28.364C562.277 29.86 562.639 31.6053 562.639 33.6V42.304H550.739C546.659 42.304 543.554 42.2133 541.423 42.032C539.338 41.8507 537.865 41.7373 537.003 41.692V42.712C536.958 44.5253 538.046 45.432 540.267 45.432H542.375C546.002 45.432 549.357 45.364 552.439 45.228C555.522 45.0467 557.811 44.888 559.307 44.752L563.387 51.212C563.387 51.6653 563.002 52.096 562.231 52.504C561.461 52.912 560.101 53.2747 558.151 53.592C556.247 53.864 553.527 54 549.991 54H535.507ZM537.003 35.776H550.059V34.824C550.059 33.9173 549.969 33.2827 549.787 32.92C549.651 32.5573 549.175 32.3307 548.359 32.24C547.543 32.1493 546.161 32.104 544.211 32.104H540.267C538.091 32.104 537.003 33.0107 537.003 34.824V35.776ZM570.193 54V23.536H580.053L581.753 24.352C583.068 24.1253 584.541 23.944 586.173 23.808C587.851 23.6267 589.641 23.536 591.545 23.536H595.217C596.532 23.536 597.801 23.7173 599.025 24.08C600.249 24.3973 601.156 24.8733 601.745 25.508C602.516 25.1 603.355 24.76 604.261 24.488C605.168 24.1707 606.324 23.944 607.729 23.808C609.18 23.6267 611.016 23.536 613.237 23.536H616.637C618.904 23.536 620.649 23.8533 621.873 24.488C623.097 25.1227 623.959 25.916 624.457 26.868C625.001 27.82 625.319 28.7947 625.409 29.792C625.545 30.744 625.613 31.56 625.613 32.24V54H613.169V34.824C613.169 33.0107 612.081 32.104 609.905 32.104H606.097C605.372 32.104 604.873 32.1947 604.601 32.376C604.329 32.5573 604.193 32.9653 604.193 33.6V54H591.545V34.824C591.545 33.0107 590.457 32.104 588.281 32.104H584.813C583.952 32.104 583.385 32.1947 583.113 32.376C582.887 32.512 582.773 32.92 582.773 33.6V54H570.193Z" fill="url(#paint0_linear_127_5232)"/>
<path d="M413.544 136L433.468 96.016H451.148L471.004 136H456.384L453.052 128.724H431.564L427.824 136H413.544ZM435.304 119.34H449.244L442.648 104.856H441.968L435.304 119.34ZM475.65 136V105.536H485.51L488.23 106.896C490.134 106.533 492.424 106.216 495.098 105.944C497.818 105.672 500.357 105.536 502.714 105.536H506.114C508.381 105.536 510.126 105.853 511.35 106.488C512.574 107.123 513.436 107.916 513.934 108.868C514.478 109.82 514.796 110.795 514.886 111.792C515.022 112.744 515.09 113.56 515.09 114.24V136H502.646V116.824C502.646 115.011 501.558 114.104 499.382 114.104H490.27C489.409 114.104 488.842 114.195 488.57 114.376C488.344 114.512 488.23 114.92 488.23 115.6V136H475.65ZM533.064 136C529.074 136 526.218 135.252 524.496 133.756C522.773 132.26 521.912 129.767 521.912 126.276C521.912 123.057 522.796 120.723 524.564 119.272C526.377 117.821 529.21 117.096 533.064 117.096H535.172C537.71 117.096 540.136 117.187 542.448 117.368C544.76 117.549 546.754 117.731 548.432 117.912V116.824C548.432 116.189 548.296 115.577 548.024 114.988C547.752 114.399 546.8 114.104 545.168 114.104H541.768C536.826 114.104 533.018 114.195 530.344 114.376C527.669 114.512 526.014 114.648 525.38 114.784L524.632 107.576C524.632 107.123 525.425 106.76 527.012 106.488C528.598 106.171 530.774 105.944 533.54 105.808C536.305 105.627 539.456 105.536 542.992 105.536H549.792C552.784 105.536 555.073 105.989 556.66 106.896C558.246 107.757 559.334 108.936 559.924 110.432C560.513 111.928 560.808 113.651 560.808 115.6V136H551.152L548.5 134.64C547.412 134.867 545.666 135.161 543.264 135.524C540.906 135.841 538.186 136 535.104 136H533.064ZM537.008 127.976H546.392C547.389 127.976 547.978 127.885 548.16 127.704C548.341 127.523 548.432 126.956 548.432 126.004V123.624H537.008C536.146 123.624 535.512 123.783 535.104 124.1C534.696 124.417 534.492 125.029 534.492 125.936C534.492 126.797 534.696 127.364 535.104 127.636C535.512 127.863 536.146 127.976 537.008 127.976ZM568.619 136V105.536H578.275L580.859 106.896C582.944 105.536 585.71 104.856 589.155 104.856C591.422 104.856 593.416 105.105 595.139 105.604C596.862 106.057 598.244 106.556 599.287 107.1C600.375 107.644 601.055 108.029 601.327 108.256L597.927 117.096C597.474 116.779 596.612 116.348 595.343 115.804C594.119 115.26 592.668 114.761 590.991 114.308C589.314 113.809 587.546 113.56 585.687 113.56H584.939C583.67 113.56 582.695 113.787 582.015 114.24C581.335 114.648 580.995 115.577 580.995 117.028V136H568.619ZM616.476 136C613.484 136 611.172 135.569 609.54 134.708C607.954 133.847 606.866 132.668 606.276 131.172C605.687 129.631 605.392 127.863 605.392 125.868V115.6C605.392 113.787 605.687 112.132 606.276 110.636C606.911 109.095 608.022 107.871 609.608 106.964C611.195 106.012 613.484 105.536 616.476 105.536H625.18C630.394 105.536 634.224 105.763 636.672 106.216C639.12 106.669 640.503 107.123 640.82 107.576L638.78 114.784C637.828 114.693 636.106 114.557 633.612 114.376C631.119 114.195 628.376 114.104 625.384 114.104H621.236C620.058 114.104 619.219 114.331 618.72 114.784C618.222 115.237 617.972 115.917 617.972 116.824V124.712C617.972 125.619 618.199 126.299 618.652 126.752C619.106 127.205 619.967 127.432 621.236 127.432H624.704C628.059 127.432 630.938 127.364 633.34 127.228C635.788 127.047 637.579 126.888 638.712 126.752L642.792 133.212C642.792 133.847 641.659 134.481 639.392 135.116C637.171 135.705 633.839 136 629.396 136H616.476ZM647.576 136V91.936H660.156V106.896C662.105 106.533 664.417 106.216 667.092 105.944C669.767 105.672 672.283 105.536 674.64 105.536H678.04C680.307 105.536 682.052 105.853 683.276 106.488C684.5 107.123 685.361 107.916 685.86 108.868C686.404 109.82 686.721 110.795 686.812 111.792C686.948 112.744 687.016 113.56 687.016 114.24V136H674.572V116.824C674.572 115.011 673.484 114.104 671.308 114.104H662.196C661.335 114.104 660.768 114.195 660.496 114.376C660.269 114.512 660.156 114.92 660.156 115.6V136H647.576ZM699.073 149.328C696.58 149.328 694.313 149.079 692.273 148.58C690.233 148.127 688.828 147.673 688.057 147.22L690.777 138.856C692.137 139.445 693.588 139.899 695.129 140.216C696.716 140.533 698.212 140.692 699.617 140.692H700.365C704.309 140.692 707.165 139.128 708.933 136H704.785L691.457 105.536H705.125L710.973 123.624L711.993 127.772H712.673L713.693 123.624L719.609 105.536H733.073L731.985 109.684C731.124 111.452 730.127 113.492 728.993 115.804C727.905 118.071 726.772 120.428 725.593 122.876C724.415 125.324 723.259 127.681 722.125 129.948C721.037 132.215 720.063 134.232 719.201 136C716.98 140.533 714.419 143.888 711.517 146.064C708.616 148.24 705.08 149.328 700.909 149.328H699.073Z" fill="url(#paint1_linear_127_5232)"/>
<path d="M158.628 136L147.68 105.536H161.348L165.428 120.768L166.516 126.14H167.196L168.216 121.448L172.228 105.536H185.828L190.112 121.448L191.064 126.14H191.744L192.9 120.632L196.708 105.536H210.444L209.356 109.684L199.428 136H184.468L180.184 118.66L179.504 115.464H178.824L177.94 119L173.588 136H158.628ZM222.096 102.612C217.518 102.612 215.228 100.663 215.228 96.764C215.228 94.588 215.795 93.092 216.928 92.276C218.107 91.4147 219.83 90.984 222.096 90.984C224.499 90.984 226.244 91.4147 227.332 92.276C228.466 93.092 229.032 94.588 229.032 96.764C229.032 100.663 226.72 102.612 222.096 102.612ZM215.84 136V105.536H228.216V136H215.84ZM249.041 136C245.596 136 243.238 135.275 241.969 133.824C240.7 132.373 240.065 130.197 240.065 127.296V114.104H234.489V105.536H237.345C238.116 105.536 238.728 105.4 239.181 105.128C239.68 104.811 239.997 104.267 240.133 103.496L241.425 96.22H252.577V105.536H263.933V114.104H252.577V124.644C252.577 125.777 252.849 126.525 253.393 126.888C253.937 127.251 254.753 127.432 255.841 127.432H262.641L264.001 135.32C263.049 135.456 261.598 135.615 259.649 135.796C257.7 135.932 255.569 136 253.257 136H249.041ZM269.416 136V91.936H281.996V106.896C283.945 106.533 286.257 106.216 288.932 105.944C291.607 105.672 294.123 105.536 296.48 105.536H299.88C302.147 105.536 303.892 105.853 305.116 106.488C306.34 107.123 307.201 107.916 307.7 108.868C308.244 109.82 308.561 110.795 308.652 111.792C308.788 112.744 308.856 113.56 308.856 114.24V136H296.412V116.824C296.412 115.011 295.324 114.104 293.148 114.104H284.036C283.175 114.104 282.608 114.195 282.336 114.376C282.109 114.512 281.996 114.92 281.996 115.6V136H269.416Z" fill="white"/>
<g filter="url(#filter0_f_127_5232)">
<line x1="333" y1="135" x2="393" y2="135" stroke="white" stroke-width="2"/>
</g>
<line x1="333" y1="135" x2="393" y2="135" stroke="white" stroke-width="2"/>
<g filter="url(#filter1_f_127_5232)">
<path d="M722 82L756 82V116" stroke="white" stroke-width="2"/>
</g>
<path d="M722 82L756 82V116" stroke="white" stroke-width="2"/>
<defs>
<filter id="filter0_f_127_5232" x="318" y="119" width="90" height="32" filterUnits="userSpaceOnUse" color-interpolation-filters="sRGB">
<feFlood flood-opacity="0" result="BackgroundImageFix"/>
<feBlend mode="normal" in="SourceGraphic" in2="BackgroundImageFix" result="shape"/>
<feGaussianBlur stdDeviation="7.5" result="effect1_foregroundBlur_127_5232"/>
</filter>
<filter id="filter1_f_127_5232" x="707" y="66" width="65" height="65" filterUnits="userSpaceOnUse" color-interpolation-filters="sRGB">
<feFlood flood-opacity="0" result="BackgroundImageFix"/>
<feBlend mode="normal" in="SourceGraphic" in2="BackgroundImageFix" result="shape"/>
<feGaussianBlur stdDeviation="7.5" result="effect1_foregroundBlur_127_5232"/>
</filter>
<linearGradient id="paint0_linear_127_5232" x1="2.93367e-07" y1="34" x2="630" y2="34" gradientUnits="userSpaceOnUse">
<stop stop-color="white"/>
<stop offset="1" stop-color="#A6A6A6"/>
</linearGradient>
<linearGradient id="paint1_linear_127_5232" x1="413" y1="116" x2="734" y2="116" gradientUnits="userSpaceOnUse">
<stop stop-color="white"/>
<stop offset="1" stop-color="#A6A6A6"/>
</linearGradient>
</defs>
</svg>
