<svg xmlns="http://www.w3.org/2000/svg" xmlns:xlink="http://www.w3.org/1999/xlink" width="900" zoomAndPan="magnify" viewBox="0 0 675 165.000002" height="220" preserveAspectRatio="xMidYMid meet" version="1.0"><defs><g/></defs><g fill="#ffffff" fill-opacity="1"><g transform="translate(30.274869, 100.172315)"><g><path d="M 16.140625 -39.410156 C 13.761719 -39.246094 11.609375 -38.527344 9.507812 -37.585938 C 8.511719 -37.144531 7.574219 -36.648438 6.800781 -35.875 C 4.753906 -33.828125 3.59375 -31.394531 3.425781 -28.464844 C 3.261719 -25.371094 4.144531 -22.496094 6.46875 -20.507812 C 8.292969 -18.902344 9.785156 -16.859375 12.214844 -15.917969 C 13.101562 -15.53125 13.875 -14.867188 14.703125 -14.371094 C 16.140625 -13.597656 17.578125 -12.714844 18.960938 -11.828125 C 20.285156 -10.945312 21.613281 -10.003906 22.882812 -8.953125 C 23.878906 -8.070312 23.769531 -5.75 22.21875 -5.363281 C 19.898438 -4.699219 17.632812 -4.699219 15.421875 -5.472656 C 14.207031 -5.582031 12.769531 -6.523438 11.496094 -7.1875 C 10.003906 -7.90625 8.457031 -9.175781 7.40625 -10.503906 C 7.128906 -10.832031 6.6875 -11.109375 6.410156 -11.332031 C 5.582031 -11.386719 5.25 -10.945312 4.917969 -10.558594 C 4.367188 -9.894531 3.871094 -9.230469 3.425781 -8.566406 C 3.09375 -8.125 2.101562 -6.964844 2.265625 -6.578125 C 2.652344 -5.691406 4.035156 -4.753906 4.753906 -4.144531 C 7.1875 -1.988281 10.003906 -0.664062 13.101562 0.109375 C 16.804688 0.996094 20.5625 0.996094 24.320312 0.496094 C 27.582031 0.109375 30.621094 -0.882812 33.21875 -2.929688 C 34.160156 -3.648438 35.042969 -4.476562 35.488281 -5.527344 C 36.09375 -7.1875 36.59375 -8.84375 36.59375 -10.722656 C 36.480469 -13.929688 35.320312 -16.582031 33 -18.738281 C 31.507812 -20.230469 29.628906 -21.226562 27.96875 -22.550781 C 26.640625 -23.546875 25.207031 -24.320312 23.824219 -25.261719 C 22.332031 -26.253906 20.785156 -27.195312 19.289062 -28.246094 C 18.738281 -28.632812 18.242188 -29.183594 17.910156 -29.792969 C 17.078125 -31.230469 17.578125 -32.558594 19.070312 -33.054688 C 19.566406 -33.21875 20.007812 -33.332031 20.507812 -33.332031 C 22.054688 -33.441406 23.492188 -33.277344 24.929688 -32.777344 C 26.753906 -32.171875 28.246094 -31.121094 29.019531 -29.296875 C 29.183594 -28.964844 29.296875 -28.578125 29.792969 -28.300781 C 31.617188 -28.355469 33.605469 -27.96875 35.542969 -28.300781 C 35.652344 -29.128906 35.542969 -29.683594 35.320312 -30.289062 C 34.988281 -31.007812 34.492188 -31.617188 34.105469 -32.28125 C 32.335938 -35.15625 30.015625 -37.253906 26.753906 -38.304688 C 23.324219 -39.410156 19.789062 -39.6875 16.140625 -39.410156 Z M 16.140625 -39.410156 "/></g></g></g><g fill="#ffffff" fill-opacity="1"><g transform="translate(68.849835, 100.172315)"><g><path d="M 35.652344 -38.914062 C 32.003906 -38.804688 28.300781 -38.804688 24.652344 -38.636719 C 20.230469 -38.472656 15.808594 -38.746094 11.332031 -38.417969 C 9.011719 -38.304688 6.632812 -38.417969 4.3125 -38.359375 C 3.648438 -38.359375 2.984375 -38.472656 2.375 -38.140625 C 1.988281 -36.425781 2.652344 -34.769531 2.210938 -33.109375 C 2.707031 -32.558594 3.316406 -32.558594 3.925781 -32.613281 C 5.363281 -32.777344 6.800781 -32.832031 8.234375 -32.722656 C 9.398438 -32.667969 10.613281 -32.777344 11.71875 -32.558594 C 12.050781 -32.226562 11.996094 -31.949219 11.996094 -31.671875 C 12.050781 -29.296875 12.382812 -26.972656 12.160156 -24.652344 C 11.996094 -22.882812 12.160156 -21.113281 12.160156 -19.402344 C 12.105469 -15.972656 12.050781 -12.601562 12.269531 -9.175781 C 12.382812 -6.632812 12.4375 -4.035156 12.105469 -1.4375 C 12.050781 -0.828125 11.996094 -0.222656 12.601562 0.164062 C 17.46875 -0.277344 22.386719 0.277344 27.25 -0.0546875 C 27.582031 -0.664062 27.527344 -1.160156 27.527344 -1.601562 C 27.472656 -2.765625 27.25 -3.871094 27.304688 -4.976562 C 27.472656 -7.960938 27.359375 -10.945312 27.25 -13.929688 C 27.195312 -15.257812 27.527344 -16.582031 27.527344 -17.910156 C 27.527344 -19.457031 27.417969 -21.003906 27.359375 -22.550781 C 27.195312 -24.820312 27.304688 -27.085938 27.085938 -29.296875 C 27.03125 -30.347656 26.917969 -31.394531 27.25 -32.5 C 30.347656 -32.613281 33.496094 -32.945312 36.703125 -33 C 37.53125 -34.878906 36.535156 -36.757812 36.921875 -38.472656 C 36.535156 -38.914062 36.09375 -38.914062 35.652344 -38.914062 Z M 35.652344 -38.914062 "/></g></g></g><g fill="#ffffff" fill-opacity="1"><g transform="translate(107.811658, 100.172315)"><g><path d="M 35.542969 -38.691406 L 35.101562 -38.691406 C 33.332031 -38.691406 31.5625 -38.804688 29.847656 -38.636719 C 28.078125 -38.472656 26.3125 -38.691406 24.597656 -38.582031 C 22.828125 -38.417969 21.003906 -38.636719 19.234375 -38.527344 C 18.019531 -38.472656 16.75 -38.527344 15.53125 -38.472656 C 12.050781 -38.304688 8.566406 -38.582031 5.085938 -38.417969 C 4.585938 -38.417969 4.3125 -38.527344 3.8125 -38.359375 C 3.703125 -38.195312 3.425781 -38.140625 3.316406 -38.027344 C 3.371094 -37.3125 3.59375 -33.21875 3.480469 -28.023438 C 3.371094 -26.476562 3.371094 -24.929688 3.316406 -23.382812 C 3.316406 -21.832031 3.371094 -20.230469 3.371094 -18.683594 C 3.371094 -17.191406 3.480469 -15.753906 3.59375 -14.261719 C 3.703125 -13.320312 3.648438 -12.382812 3.648438 -11.441406 C 3.648438 -10.28125 3.703125 -9.066406 3.59375 -7.960938 C 3.480469 -6.800781 3.480469 -5.75 3.59375 -4.644531 C 3.703125 -3.09375 3.757812 -1.492188 3.648438 0.0546875 C 3.648438 0.277344 5.140625 0.0546875 5.636719 0.0546875 C 7.074219 0.0546875 8.457031 0.164062 9.839844 0.277344 C 11.054688 0.332031 15.644531 0.0546875 16.304688 0.0546875 C 19.402344 0.0546875 22.496094 0.109375 25.535156 0 C 27.914062 -0.0546875 30.289062 -0.222656 32.667969 -0.0546875 C 34.546875 0.0546875 36.371094 -0.277344 38.25 -0.222656 C 39.023438 -0.164062 39.410156 -0.609375 39.355469 -1.382812 L 39.355469 -5.527344 C 38.195312 -6.136719 37.089844 -5.582031 35.984375 -5.582031 C 34.160156 -5.582031 32.28125 -5.636719 30.457031 -5.417969 C 29.570312 -5.363281 28.632812 -5.527344 27.804688 -5.363281 C 26.367188 -5.140625 24.984375 -5.195312 23.546875 -5.085938 C 22.441406 -5.03125 21.226562 -5.085938 20.066406 -5.140625 C 19.566406 -5.195312 19.015625 -4.976562 18.574219 -5.304688 C 18.40625 -9.121094 18.074219 -12.933594 18.351562 -16.804688 L 22.441406 -16.804688 C 23.214844 -16.804688 23.988281 -16.804688 24.761719 -16.859375 C 26.753906 -16.914062 28.6875 -17.023438 30.675781 -17.023438 C 31.726562 -17.023438 32.777344 -17.078125 33.828125 -17.078125 C 34.382812 -17.078125 34.710938 -17.523438 34.710938 -18.074219 C 34.65625 -19.289062 34.601562 -20.507812 34.65625 -21.777344 C 34.710938 -22.550781 34.269531 -22.996094 33.496094 -23.050781 C 32.558594 -23.105469 31.617188 -23.050781 30.675781 -22.996094 C 28.742188 -22.9375 26.808594 -22.773438 24.875 -22.773438 C 23.988281 -22.828125 23.105469 -22.882812 22.21875 -22.71875 C 20.949219 -22.550781 19.734375 -22.9375 18.460938 -22.773438 C 18.074219 -26.144531 18.460938 -29.792969 18.351562 -33.109375 C 24.597656 -33.664062 30.898438 -33.277344 37.144531 -33.386719 C 37.199219 -33.664062 37.3125 -33.9375 37.253906 -34.214844 C 37.144531 -35.210938 37.035156 -36.207031 37.199219 -37.253906 C 37.3125 -38.304688 36.648438 -38.804688 35.542969 -38.691406 Z M 35.542969 -38.691406 "/></g></g></g><g fill="#ffffff" fill-opacity="1"><g transform="translate(148.81829, 100.172315)"><g><path d="M 42.949219 -38.859375 C 39.355469 -39.632812 36.09375 -38.304688 34.710938 -34.382812 C 34.601562 -34.050781 34.4375 -33.773438 34.269531 -33.496094 C 33.71875 -32.558594 33.054688 -31.285156 32.777344 -30.234375 C 32.335938 -28.855469 31.839844 -27.472656 31.339844 -26.089844 C 30.347656 -23.382812 29.296875 -20.671875 28.246094 -17.964844 C 27.804688 -16.804688 27.417969 -15.644531 26.808594 -14.539062 C 26.640625 -14.648438 26.53125 -14.703125 26.53125 -14.757812 C 24.875 -19.347656 22.664062 -23.714844 21.226562 -28.355469 C 20.453125 -30.675781 19.566406 -32.945312 18.792969 -35.265625 C 18.40625 -36.316406 18.074219 -37.367188 17.46875 -38.417969 C 17.191406 -38.472656 16.914062 -38.636719 16.636719 -38.636719 C 11.664062 -38.636719 6.355469 -38.527344 1.4375 -38.691406 C 1.214844 -38.359375 2.265625 -36.480469 2.597656 -35.652344 C 3.371094 -33.664062 4.199219 -31.617188 4.976562 -29.570312 C 5.96875 -27.085938 7.074219 -24.652344 8.070312 -22.164062 C 9.285156 -19.125 10.503906 -16.085938 11.609375 -12.988281 C 12.714844 -9.839844 14.207031 -6.855469 15.257812 -3.703125 C 15.585938 -2.707031 15.917969 -1.660156 16.417969 -0.664062 C 17.023438 0.554688 17.136719 0.609375 18.40625 0.554688 C 20.230469 0.496094 22 0.386719 23.824219 0.332031 C 24.761719 0.277344 25.703125 0.277344 26.753906 0.277344 C 27.417969 -1.269531 28.191406 -2.875 28.855469 -4.476562 C 29.847656 -6.910156 31.121094 -9.285156 31.949219 -11.773438 C 32.667969 -13.761719 33.386719 -15.753906 34.160156 -17.6875 C 35.101562 -19.84375 36.039062 -22 36.8125 -24.210938 C 37.640625 -26.476562 38.746094 -29.019531 39.851562 -31.175781 C 40.570312 -32.445312 41.457031 -33.550781 43.226562 -33.21875 C 43.28125 -33.21875 43.390625 -33.277344 43.558594 -33.441406 C 43.445312 -35.101562 43.832031 -36.8125 43.5 -38.691406 Z M 42.949219 -38.859375 "/></g></g></g><g fill="#ffffff" fill-opacity="1"><g transform="translate(193.969793, 100.172315)"><g><path d="M 35.542969 -38.691406 L 35.101562 -38.691406 C 33.332031 -38.691406 31.5625 -38.804688 29.847656 -38.636719 C 28.078125 -38.472656 26.3125 -38.691406 24.597656 -38.582031 C 22.828125 -38.417969 21.003906 -38.636719 19.234375 -38.527344 C 18.019531 -38.472656 16.75 -38.527344 15.53125 -38.472656 C 12.050781 -38.304688 8.566406 -38.582031 5.085938 -38.417969 C 4.585938 -38.417969 4.3125 -38.527344 3.8125 -38.359375 C 3.703125 -38.195312 3.425781 -38.140625 3.316406 -38.027344 C 3.371094 -37.3125 3.59375 -33.21875 3.480469 -28.023438 C 3.371094 -26.476562 3.371094 -24.929688 3.316406 -23.382812 C 3.316406 -21.832031 3.371094 -20.230469 3.371094 -18.683594 C 3.371094 -17.191406 3.480469 -15.753906 3.59375 -14.261719 C 3.703125 -13.320312 3.648438 -12.382812 3.648438 -11.441406 C 3.648438 -10.28125 3.703125 -9.066406 3.59375 -7.960938 C 3.480469 -6.800781 3.480469 -5.75 3.59375 -4.644531 C 3.703125 -3.09375 3.757812 -1.492188 3.648438 0.0546875 C 3.648438 0.277344 5.140625 0.0546875 5.636719 0.0546875 C 7.074219 0.0546875 8.457031 0.164062 9.839844 0.277344 C 11.054688 0.332031 15.644531 0.0546875 16.304688 0.0546875 C 19.402344 0.0546875 22.496094 0.109375 25.535156 0 C 27.914062 -0.0546875 30.289062 -0.222656 32.667969 -0.0546875 C 34.546875 0.0546875 36.371094 -0.277344 38.25 -0.222656 C 39.023438 -0.164062 39.410156 -0.609375 39.355469 -1.382812 L 39.355469 -5.527344 C 38.195312 -6.136719 37.089844 -5.582031 35.984375 -5.582031 C 34.160156 -5.582031 32.28125 -5.636719 30.457031 -5.417969 C 29.570312 -5.363281 28.632812 -5.527344 27.804688 -5.363281 C 26.367188 -5.140625 24.984375 -5.195312 23.546875 -5.085938 C 22.441406 -5.03125 21.226562 -5.085938 20.066406 -5.140625 C 19.566406 -5.195312 19.015625 -4.976562 18.574219 -5.304688 C 18.40625 -9.121094 18.074219 -12.933594 18.351562 -16.804688 L 22.441406 -16.804688 C 23.214844 -16.804688 23.988281 -16.804688 24.761719 -16.859375 C 26.753906 -16.914062 28.6875 -17.023438 30.675781 -17.023438 C 31.726562 -17.023438 32.777344 -17.078125 33.828125 -17.078125 C 34.382812 -17.078125 34.710938 -17.523438 34.710938 -18.074219 C 34.65625 -19.289062 34.601562 -20.507812 34.65625 -21.777344 C 34.710938 -22.550781 34.269531 -22.996094 33.496094 -23.050781 C 32.558594 -23.105469 31.617188 -23.050781 30.675781 -22.996094 C 28.742188 -22.9375 26.808594 -22.773438 24.875 -22.773438 C 23.988281 -22.828125 23.105469 -22.882812 22.21875 -22.71875 C 20.949219 -22.550781 19.734375 -22.9375 18.460938 -22.773438 C 18.074219 -26.144531 18.460938 -29.792969 18.351562 -33.109375 C 24.597656 -33.664062 30.898438 -33.277344 37.144531 -33.386719 C 37.199219 -33.664062 37.3125 -33.9375 37.253906 -34.214844 C 37.144531 -35.210938 37.035156 -36.207031 37.199219 -37.253906 C 37.3125 -38.304688 36.648438 -38.804688 35.542969 -38.691406 Z M 35.542969 -38.691406 "/></g></g></g><g fill="#ffffff" fill-opacity="1"><g transform="translate(234.976425, 100.172315)"><g><path d="M 41.566406 -38.804688 C 40.570312 -38.691406 39.578125 -38.746094 38.582031 -38.691406 C 37.972656 -38.691406 37.367188 -38.527344 36.703125 -38.359375 C 37.035156 -30.402344 36.703125 -22.496094 36.867188 -14.480469 C 30.621094 -22.109375 24.707031 -30.015625 18.792969 -37.753906 C 18.683594 -38.085938 18.40625 -38.304688 18.128906 -38.582031 C 13.042969 -38.691406 8.457031 -38.195312 3.425781 -38.417969 C 3.261719 -37.917969 3.316406 -37.640625 3.316406 -37.3125 C 3.539062 -35.375 3.539062 -33.496094 3.539062 -31.5625 C 3.539062 -29.902344 3.425781 -28.246094 3.539062 -26.585938 C 3.648438 -25.648438 3.703125 -24.707031 3.648438 -23.769531 C 3.480469 -22.054688 3.539062 -20.339844 3.59375 -18.683594 C 3.703125 -16.085938 3.871094 -13.542969 3.871094 -10.945312 C 3.8125 -9.175781 3.8125 -7.460938 3.703125 -5.691406 C 3.648438 -3.980469 3.648438 -2.433594 3.648438 -0.71875 C 3.648438 -0.441406 3.648438 -0.109375 3.980469 0.109375 C 5.914062 -0.441406 7.960938 0.277344 9.785156 -0.332031 C 9.5625 -2.984375 9.839844 -5.582031 9.617188 -8.179688 C 9.453125 -10.777344 9.398438 -13.433594 9.285156 -16.03125 C 9.230469 -18.683594 9.339844 -21.28125 9.121094 -23.933594 C 15.421875 -16.140625 21.445312 -8.179688 27.140625 0 C 27.25 0.109375 34.105469 -0.0546875 35.320312 0 C 37.3125 0.0546875 38.691406 -0.109375 40.683594 -0.109375 C 40.957031 -0.109375 41.675781 0 41.898438 -0.0546875 C 42.339844 -0.109375 42.507812 -0.386719 42.507812 -0.773438 C 42.507812 -1.214844 42.507812 -1.660156 42.453125 -2.101562 C 42.230469 -4.421875 42.507812 -6.6875 42.394531 -9.011719 C 42.285156 -10.390625 42.394531 -11.828125 42.339844 -13.210938 C 42.230469 -15.3125 42.175781 -17.410156 42.230469 -19.457031 C 42.339844 -21.722656 42.230469 -23.988281 42.285156 -26.253906 C 42.339844 -27.859375 42.285156 -29.460938 42.230469 -31.121094 C 42.175781 -31.949219 42.121094 -32.832031 42.175781 -33.664062 C 42.285156 -35.265625 42.339844 -36.867188 42.339844 -38.472656 C 42.121094 -38.746094 41.898438 -38.859375 41.566406 -38.804688 Z M 41.566406 -38.804688 "/></g></g></g><g fill="#ffffff" fill-opacity="1"><g transform="translate(280.901641, 100.172315)"><g/></g></g><g fill="#ffffff" fill-opacity="1"><g transform="translate(295.823194, 100.172315)"><g><path d="M 11.996094 -38.746094 C 10.171875 -38.914062 8.347656 -38.636719 6.46875 -38.691406 C 5.472656 -38.746094 4.476562 -38.859375 3.480469 -38.582031 C 3.316406 -38.25 3.371094 -37.476562 3.371094 -37.199219 C 3.316406 -35.597656 3.480469 -34.546875 3.480469 -32.945312 L 3.480469 -27.636719 C 3.480469 -26.53125 3.480469 -25.371094 3.425781 -24.265625 C 3.371094 -22.996094 3.371094 -21.777344 3.425781 -20.5625 C 3.425781 -19.070312 3.480469 -17.578125 3.371094 -16.085938 C 3.261719 -15.035156 3.371094 -13.984375 3.425781 -12.878906 L 3.59375 -9.785156 L 3.59375 -5.691406 C 3.59375 -4.476562 3.648438 -3.316406 3.539062 -2.101562 C 3.480469 -1.4375 3.316406 -0.941406 3.757812 0 C 5.304688 -0.164062 6.910156 -0.0546875 8.511719 -0.164062 C 10.390625 -0.277344 12.269531 0 14.207031 -0.109375 C 17.46875 -0.277344 20.785156 -0.0546875 24.042969 0 C 26.199219 0.0546875 28.300781 -0.222656 30.457031 -0.164062 C 31.617188 -0.164062 32.777344 -0.554688 33.996094 -0.664062 C 35.375 -0.828125 36.648438 -1.328125 37.917969 -1.988281 C 39.078125 -2.597656 40.074219 -3.480469 41.070312 -4.367188 C 42.507812 -5.691406 43.558594 -7.242188 44.273438 -8.953125 C 45.214844 -11.164062 45.878906 -13.433594 45.988281 -15.863281 C 46.15625 -17.910156 46.375 -19.679688 46.375 -21.667969 C 46.375 -23.105469 45.878906 -24.984375 45.878906 -25.757812 C 45.878906 -25.980469 45.769531 -26.199219 45.710938 -26.421875 C 45.105469 -27.804688 44.664062 -29.296875 43.886719 -30.566406 C 43.335938 -31.453125 42.78125 -32.28125 42.121094 -33.054688 C 41.457031 -33.882812 40.460938 -34.324219 39.6875 -34.988281 C 38.859375 -35.761719 37.917969 -36.371094 36.921875 -36.8125 C 35.488281 -37.367188 34.050781 -38.027344 32.445312 -38.140625 C 31.339844 -38.25 29.960938 -38.691406 28.855469 -38.636719 C 27.527344 -38.527344 24.542969 -38.746094 23.269531 -38.691406 C 21.777344 -38.582031 13.375 -38.636719 11.996094 -38.746094 Z M 22.664062 -33.21875 C 25.148438 -33.109375 26.753906 -31.726562 27.859375 -29.570312 C 28.464844 -28.464844 28.796875 -27.472656 29.128906 -26.253906 C 29.515625 -24.984375 29.792969 -23.4375 29.792969 -22.277344 C 29.847656 -20.894531 29.738281 -19.457031 29.847656 -18.019531 C 29.960938 -17.078125 29.847656 -12.824219 28.523438 -9.894531 C 28.023438 -8.789062 27.25 -7.90625 26.253906 -7.128906 C 25.09375 -6.246094 23.878906 -5.96875 22.550781 -5.859375 C 21.390625 -5.75 19.953125 -5.804688 18.792969 -5.804688 C 18.40625 -6.578125 18.683594 -7.40625 18.628906 -8.234375 C 18.574219 -10.117188 18.40625 -12.050781 18.40625 -13.929688 C 18.40625 -15.644531 18.574219 -22 18.460938 -22.71875 C 18.351562 -23.492188 18.574219 -26.476562 18.460938 -28.355469 C 18.40625 -29.902344 18.738281 -31.394531 18.515625 -33 C 18.960938 -33.109375 19.402344 -33.21875 19.84375 -33.21875 C 20.785156 -33.164062 21.722656 -33.21875 22.664062 -33.21875 Z M 22.664062 -33.21875 "/></g></g></g><g fill="#ffffff" fill-opacity="1"><g transform="translate(344.677447, 100.172315)"><g><path d="M 35.542969 -38.691406 L 35.101562 -38.691406 C 33.332031 -38.691406 31.5625 -38.804688 29.847656 -38.636719 C 28.078125 -38.472656 26.3125 -38.691406 24.597656 -38.582031 C 22.828125 -38.417969 21.003906 -38.636719 19.234375 -38.527344 C 18.019531 -38.472656 16.75 -38.527344 15.53125 -38.472656 C 12.050781 -38.304688 8.566406 -38.582031 5.085938 -38.417969 C 4.585938 -38.417969 4.3125 -38.527344 3.8125 -38.359375 C 3.703125 -38.195312 3.425781 -38.140625 3.316406 -38.027344 C 3.371094 -37.3125 3.59375 -33.21875 3.480469 -28.023438 C 3.371094 -26.476562 3.371094 -24.929688 3.316406 -23.382812 C 3.316406 -21.832031 3.371094 -20.230469 3.371094 -18.683594 C 3.371094 -17.191406 3.480469 -15.753906 3.59375 -14.261719 C 3.703125 -13.320312 3.648438 -12.382812 3.648438 -11.441406 C 3.648438 -10.28125 3.703125 -9.066406 3.59375 -7.960938 C 3.480469 -6.800781 3.480469 -5.75 3.59375 -4.644531 C 3.703125 -3.09375 3.757812 -1.492188 3.648438 0.0546875 C 3.648438 0.277344 5.140625 0.0546875 5.636719 0.0546875 C 7.074219 0.0546875 8.457031 0.164062 9.839844 0.277344 C 11.054688 0.332031 15.644531 0.0546875 16.304688 0.0546875 C 19.402344 0.0546875 22.496094 0.109375 25.535156 0 C 27.914062 -0.0546875 30.289062 -0.222656 32.667969 -0.0546875 C 34.546875 0.0546875 36.371094 -0.277344 38.25 -0.222656 C 39.023438 -0.164062 39.410156 -0.609375 39.355469 -1.382812 L 39.355469 -5.527344 C 38.195312 -6.136719 37.089844 -5.582031 35.984375 -5.582031 C 34.160156 -5.582031 32.28125 -5.636719 30.457031 -5.417969 C 29.570312 -5.363281 28.632812 -5.527344 27.804688 -5.363281 C 26.367188 -5.140625 24.984375 -5.195312 23.546875 -5.085938 C 22.441406 -5.03125 21.226562 -5.085938 20.066406 -5.140625 C 19.566406 -5.195312 19.015625 -4.976562 18.574219 -5.304688 C 18.40625 -9.121094 18.074219 -12.933594 18.351562 -16.804688 L 22.441406 -16.804688 C 23.214844 -16.804688 23.988281 -16.804688 24.761719 -16.859375 C 26.753906 -16.914062 28.6875 -17.023438 30.675781 -17.023438 C 31.726562 -17.023438 32.777344 -17.078125 33.828125 -17.078125 C 34.382812 -17.078125 34.710938 -17.523438 34.710938 -18.074219 C 34.65625 -19.289062 34.601562 -20.507812 34.65625 -21.777344 C 34.710938 -22.550781 34.269531 -22.996094 33.496094 -23.050781 C 32.558594 -23.105469 31.617188 -23.050781 30.675781 -22.996094 C 28.742188 -22.9375 26.808594 -22.773438 24.875 -22.773438 C 23.988281 -22.828125 23.105469 -22.882812 22.21875 -22.71875 C 20.949219 -22.550781 19.734375 -22.9375 18.460938 -22.773438 C 18.074219 -26.144531 18.460938 -29.792969 18.351562 -33.109375 C 24.597656 -33.664062 30.898438 -33.277344 37.144531 -33.386719 C 37.199219 -33.664062 37.3125 -33.9375 37.253906 -34.214844 C 37.144531 -35.210938 37.035156 -36.207031 37.199219 -37.253906 C 37.3125 -38.304688 36.648438 -38.804688 35.542969 -38.691406 Z M 35.542969 -38.691406 "/></g></g></g><g fill="#ffffff" fill-opacity="1"><g transform="translate(385.684092, 100.172315)"><g><path d="M 51.40625 -38.804688 C 51.238281 -38.804688 50.910156 -38.804688 50.6875 -38.746094 C 48.808594 -38.746094 46.929688 -38.691406 45.050781 -38.582031 C 44.164062 -38.527344 43.226562 -38.472656 42.339844 -38.472656 C 40.792969 -38.472656 39.300781 -38.582031 37.753906 -38.582031 C 37.144531 -38.636719 36.921875 -38.417969 36.703125 -37.972656 C 36.261719 -37.035156 35.875 -36.039062 35.375 -35.101562 C 34.324219 -33.109375 33.277344 -31.121094 32.226562 -29.183594 C 31.617188 -27.96875 30.84375 -26.753906 30.234375 -25.535156 C 29.683594 -24.320312 28.964844 -23.214844 28.578125 -21.945312 C 28.410156 -21.445312 28.078125 -21.003906 27.804688 -20.507812 C 26.3125 -22.386719 25.148438 -24.429688 23.988281 -26.585938 C 22.9375 -28.410156 21.667969 -30.070312 20.726562 -31.949219 C 19.621094 -34.160156 18.242188 -36.261719 17.355469 -38.582031 C 17.246094 -38.804688 17.023438 -38.804688 16.691406 -38.804688 C 16.304688 -38.804688 15.863281 -38.746094 15.476562 -38.746094 C 13.542969 -38.691406 11.550781 -38.746094 9.617188 -38.746094 C 7.574219 -38.691406 5.691406 -38.582031 3.59375 -38.746094 C 3.425781 -38.304688 3.261719 -37.917969 3.371094 -37.421875 C 3.425781 -36.867188 3.316406 -36.261719 3.371094 -35.597656 C 3.425781 -34.601562 3.480469 -33.605469 3.480469 -32.558594 C 3.425781 -31.121094 3.648438 -29.738281 3.539062 -28.300781 C 3.425781 -26.917969 3.59375 -25.535156 3.59375 -24.101562 L 3.59375 -18.792969 C 3.59375 -17.136719 3.59375 -15.53125 3.648438 -13.929688 L 3.59375 -7.574219 C 3.648438 -6.355469 3.59375 -5.140625 3.539062 -3.980469 C 3.480469 -2.875 3.59375 -1.714844 3.480469 -0.664062 C 3.480469 -0.332031 3.703125 -0.0546875 4.089844 -0.164062 C 5.417969 -0.441406 7.515625 -0.222656 8.84375 -0.277344 C 9.453125 -0.332031 9.175781 -1.492188 9.175781 -1.714844 C 9.121094 -3.039062 9.230469 -4.257812 9.175781 -5.527344 C 9.066406 -7.738281 9.066406 -10.003906 9.121094 -12.269531 C 9.175781 -13.652344 9.175781 -15.144531 9.121094 -16.582031 C 9.121094 -17.6875 9.066406 -18.792969 9.011719 -19.898438 C 9.011719 -20.398438 9.175781 -20.949219 9.066406 -21.390625 C 8.898438 -22.386719 9.011719 -23.324219 8.898438 -24.429688 C 9.453125 -23.714844 9.726562 -23.105469 10.117188 -22.496094 C 10.667969 -21.613281 11.277344 -20.671875 11.882812 -19.84375 C 12.769531 -18.683594 13.433594 -17.46875 14.152344 -16.25 C 15.257812 -14.480469 16.363281 -12.601562 17.523438 -10.832031 C 18.128906 -9.839844 18.792969 -8.898438 19.402344 -7.90625 C 19.566406 -7.683594 19.734375 -7.515625 19.953125 -7.515625 C 20.453125 -7.515625 20.949219 -7.515625 21.445312 -7.574219 C 23.492188 -7.683594 25.59375 -8.015625 27.582031 -7.574219 C 28.191406 -7.460938 28.523438 -7.683594 28.742188 -8.234375 C 29.351562 -9.785156 30.015625 -11.277344 30.789062 -12.714844 C 32.390625 -15.863281 33.9375 -18.960938 35.597656 -22.054688 C 35.984375 -22.71875 36.425781 -23.324219 36.921875 -23.988281 C 37.199219 -21.335938 36.8125 -18.792969 36.867188 -16.195312 C 36.921875 -14.539062 36.980469 -12.769531 36.867188 -11.054688 C 36.703125 -8.84375 36.703125 -6.6875 36.703125 -4.476562 C 36.648438 -3.09375 36.535156 -0.773438 36.757812 -0.222656 C 37.144531 -0.109375 37.253906 0.0546875 37.585938 0 C 38.859375 -0.222656 40.128906 -0.0546875 41.402344 0 C 44.164062 0.109375 46.929688 -0.332031 49.636719 -0.277344 L 51.625 -0.277344 C 52.015625 -0.609375 52.070312 -0.996094 52.015625 -1.4375 C 52.015625 -2.265625 51.957031 -3.207031 51.957031 -4.035156 C 51.957031 -4.863281 52.015625 -5.75 51.902344 -6.578125 C 51.792969 -7.738281 51.847656 -8.84375 51.792969 -10.003906 C 51.738281 -11.222656 51.738281 -12.382812 51.792969 -13.597656 C 51.792969 -14.539062 51.625 -15.421875 51.683594 -16.304688 C 51.792969 -18.40625 51.847656 -20.507812 51.847656 -22.664062 C 51.847656 -23.824219 51.738281 -25.09375 51.847656 -26.253906 C 51.902344 -27.359375 51.792969 -28.410156 51.792969 -29.515625 C 51.847656 -30.898438 51.683594 -32.28125 51.570312 -33.664062 L 51.570312 -37.863281 C 51.570312 -38.25 51.847656 -38.527344 51.40625 -38.804688 Z M 51.40625 -38.804688 "/></g></g></g><g fill="#ffffff" fill-opacity="1"><g transform="translate(441.114881, 100.172315)"><g><path d="M 26.699219 -39.355469 C 25.425781 -39.464844 24.15625 -39.410156 22.882812 -39.300781 C 21.832031 -39.191406 20.726562 -39.078125 19.679688 -38.804688 C 18.683594 -38.582031 17.410156 -38.195312 16.75 -37.972656 C 15.035156 -37.476562 14.261719 -36.980469 12.601562 -36.371094 C 10.558594 -35.542969 8.953125 -34.050781 7.628906 -32.390625 C 6.6875 -31.285156 5.859375 -30.015625 5.085938 -28.742188 C 4.035156 -26.917969 3.371094 -25.039062 2.820312 -23.050781 C 2.488281 -21.777344 2.320312 -16.636719 2.652344 -15.476562 C 3.09375 -13.984375 4.144531 -10.558594 4.976562 -9.230469 C 5.472656 -8.457031 5.96875 -7.628906 6.632812 -7.019531 C 7.683594 -5.96875 8.292969 -4.644531 9.617188 -3.871094 C 10.28125 -3.480469 10.945312 -3.039062 11.550781 -2.542969 C 12.546875 -1.769531 13.820312 -1.546875 14.980469 -0.996094 C 16.304688 -0.277344 17.855469 -0.222656 19.289062 0.164062 C 20.785156 0.496094 22.332031 0.496094 23.824219 0.71875 C 24.707031 0.828125 25.59375 0.773438 26.476562 0.773438 C 27.914062 0.773438 28.464844 0.71875 30.015625 0.441406 C 31.394531 0.222656 32.832031 0.222656 34.214844 -0.277344 C 35.320312 -0.71875 36.425781 -1.105469 37.421875 -1.714844 C 39.191406 -2.707031 40.902344 -3.8125 42.175781 -5.472656 C 43.28125 -6.855469 44.21875 -8.347656 44.992188 -9.949219 C 45.601562 -11.277344 46.042969 -12.714844 46.429688 -14.152344 C 47.148438 -16.75 47.480469 -19.347656 47.148438 -21.890625 C 47.148438 -23.714844 46.597656 -25.207031 46.15625 -26.753906 C 45.546875 -28.964844 44.332031 -30.84375 42.78125 -32.5 C 41.566406 -33.828125 40.128906 -34.933594 38.636719 -35.929688 C 38.140625 -36.261719 37.640625 -36.8125 37.144531 -36.980469 C 35.816406 -37.421875 34.65625 -38.25 33.21875 -38.417969 C 32.058594 -38.582031 30.898438 -39.132812 29.683594 -39.191406 Z M 24.542969 -33.664062 C 25.371094 -33.9375 27.472656 -33.605469 27.96875 -32.945312 C 28.796875 -31.839844 29.242188 -30.675781 29.683594 -29.242188 C 30.566406 -27.304688 30.179688 -25.480469 30.566406 -23.382812 C 30.675781 -22.609375 30.675781 -21.777344 30.675781 -21.003906 C 30.675781 -18.792969 30.734375 -16.636719 30.511719 -14.425781 C 30.289062 -12.214844 29.847656 -10.058594 29.242188 -7.960938 C 28.855469 -6.742188 28.078125 -5.804688 27.03125 -5.140625 C 26.3125 -4.644531 25.425781 -4.699219 24.542969 -5.03125 C 22.996094 -5.527344 22.109375 -6.6875 21.335938 -8.015625 C 20.175781 -10.003906 19.789062 -12.214844 19.347656 -14.425781 C 19.179688 -15.144531 19.179688 -15.972656 19.125 -16.75 C 19.015625 -17.964844 18.792969 -19.402344 18.960938 -20.617188 C 19.234375 -23.160156 19.402344 -25.425781 20.175781 -27.859375 C 20.617188 -29.128906 20.949219 -30.402344 21.667969 -31.507812 C 22.21875 -32.445312 23.4375 -33.332031 24.542969 -33.664062 Z M 24.542969 -33.664062 "/></g></g></g><g fill="#ffffff" fill-opacity="1"><g transform="translate(490.853374, 100.172315)"><g/></g></g><g fill="#ffffff" fill-opacity="1"><g transform="translate(505.774927, 100.172315)"><g><path d="M 26.753906 -39.132812 C 25.207031 -39.132812 23.65625 -39.023438 22.164062 -39.023438 C 20.785156 -39.023438 19.457031 -38.96875 18.074219 -39.132812 C 17.46875 -39.191406 16.859375 -39.078125 16.304688 -39.023438 C 15.421875 -37.035156 14.867188 -35.042969 14.039062 -33.164062 C 13.15625 -31.121094 12.65625 -28.964844 11.609375 -26.972656 C 10.832031 -25.535156 10.613281 -23.878906 10.003906 -22.386719 C 9.5625 -21.390625 9.339844 -20.285156 8.898438 -19.347656 C 7.90625 -17.300781 7.074219 -15.144531 6.191406 -13.042969 C 5.75 -11.996094 5.472656 -10.945312 4.976562 -9.949219 C 4.199219 -8.511719 3.703125 -6.964844 3.207031 -5.472656 C 2.765625 -4.035156 2.046875 -2.707031 1.492188 -1.328125 C 1.269531 -0.71875 1.382812 -0.386719 1.601562 0 C 3.316406 -0.0546875 4.976562 -0.164062 6.910156 -0.109375 C 7.460938 -0.996094 7.738281 -2.320312 8.292969 -3.480469 C 8.898438 -4.753906 9.339844 -6.023438 9.894531 -7.40625 C 14.648438 -7.128906 19.402344 -7.792969 24.210938 -7.351562 C 25.09375 -4.863281 26.144531 -2.375 26.972656 0.109375 C 27.472656 0.332031 27.914062 0 28.300781 0.0546875 C 30.84375 0.109375 33.386719 0.0546875 35.929688 -0.109375 C 37.53125 -0.222656 39.132812 0 40.738281 -0.277344 C 41.234375 -0.386719 41.898438 -0.0546875 42.285156 -0.773438 C 36.980469 -13.320312 32.777344 -26.3125 27.359375 -38.914062 C 27.25 -38.96875 26.972656 -39.132812 26.753906 -39.132812 Z M 17.355469 -26.699219 C 19.070312 -22.164062 20.507812 -17.523438 22.21875 -12.933594 C 18.738281 -12.824219 15.367188 -12.601562 11.996094 -12.824219 C 13.875 -17.355469 15.199219 -22.164062 17.355469 -26.699219 Z M 17.355469 -26.699219 "/></g></g></g><g fill="#ffffff" fill-opacity="1"><g transform="translate(549.544819, 100.172315)"><g><path d="M 5.25 -38.746094 C 3.757812 -38.691406 3.371094 -38.359375 3.316406 -36.8125 C 3.316406 -33.664062 3.539062 -30.511719 3.539062 -27.359375 C 3.539062 -22.664062 3.261719 -17.964844 3.480469 -13.320312 C 3.59375 -9.839844 3.59375 -6.300781 3.59375 -2.820312 C 3.59375 -1.988281 3.480469 -1.105469 3.648438 -0.109375 C 8.457031 0 13.101562 0.0546875 17.742188 0.164062 C 18.019531 0.164062 18.242188 0.0546875 18.515625 -0.222656 C 18.628906 -3.980469 18.40625 -7.847656 18.683594 -11.609375 C 19.457031 -11.996094 20.121094 -11.882812 20.785156 -11.882812 C 22.550781 -11.996094 24.320312 -11.773438 26.035156 -11.882812 C 28.464844 -11.996094 30.84375 -11.996094 33.21875 -12.160156 C 36.148438 -12.382812 38.746094 -13.597656 41.015625 -15.367188 C 41.566406 -15.753906 42.121094 -16.140625 42.394531 -16.804688 C 43.28125 -18.738281 44.71875 -20.507812 44.773438 -22.828125 C 44.773438 -23.65625 45.105469 -24.542969 45.105469 -25.425781 C 45.105469 -28.191406 44.054688 -30.675781 42.617188 -32.945312 C 41.015625 -35.375 38.691406 -36.757812 35.984375 -37.476562 C 32.613281 -38.417969 29.128906 -38.691406 25.648438 -38.691406 C 25.09375 -38.691406 24.488281 -38.527344 23.933594 -38.527344 C 20.726562 -38.527344 17.523438 -38.582031 14.316406 -38.527344 C 11.332031 -38.417969 8.292969 -38.804688 5.25 -38.746094 Z M 23.105469 -32.777344 C 23.382812 -32.722656 23.65625 -32.667969 23.933594 -32.667969 C 25.039062 -32.722656 25.925781 -32.113281 26.53125 -31.285156 C 27.195312 -30.511719 27.75 -29.570312 27.96875 -28.523438 C 28.523438 -26.3125 28.578125 -24.042969 27.75 -21.832031 C 26.917969 -19.511719 25.039062 -17.796875 22.164062 -17.910156 C 21.058594 -17.910156 19.898438 -17.796875 18.628906 -18.019531 C 18.40625 -22.996094 18.515625 -27.804688 18.574219 -32.777344 C 20.121094 -33 21.613281 -33.054688 23.105469 -32.777344 Z M 23.105469 -32.777344 "/></g></g></g><g fill="#ffffff" fill-opacity="1"><g transform="translate(597.127976, 100.172315)"><g><path d="M 5.25 -38.746094 C 3.757812 -38.691406 3.371094 -38.359375 3.316406 -36.8125 C 3.316406 -33.664062 3.539062 -30.511719 3.539062 -27.359375 C 3.539062 -22.664062 3.261719 -17.964844 3.480469 -13.320312 C 3.59375 -9.839844 3.59375 -6.300781 3.59375 -2.820312 C 3.59375 -1.988281 3.480469 -1.105469 3.648438 -0.109375 C 8.457031 0 13.101562 0.0546875 17.742188 0.164062 C 18.019531 0.164062 18.242188 0.0546875 18.515625 -0.222656 C 18.628906 -3.980469 18.40625 -7.847656 18.683594 -11.609375 C 19.457031 -11.996094 20.121094 -11.882812 20.785156 -11.882812 C 22.550781 -11.996094 24.320312 -11.773438 26.035156 -11.882812 C 28.464844 -11.996094 30.84375 -11.996094 33.21875 -12.160156 C 36.148438 -12.382812 38.746094 -13.597656 41.015625 -15.367188 C 41.566406 -15.753906 42.121094 -16.140625 42.394531 -16.804688 C 43.28125 -18.738281 44.71875 -20.507812 44.773438 -22.828125 C 44.773438 -23.65625 45.105469 -24.542969 45.105469 -25.425781 C 45.105469 -28.191406 44.054688 -30.675781 42.617188 -32.945312 C 41.015625 -35.375 38.691406 -36.757812 35.984375 -37.476562 C 32.613281 -38.417969 29.128906 -38.691406 25.648438 -38.691406 C 25.09375 -38.691406 24.488281 -38.527344 23.933594 -38.527344 C 20.726562 -38.527344 17.523438 -38.582031 14.316406 -38.527344 C 11.332031 -38.417969 8.292969 -38.804688 5.25 -38.746094 Z M 23.105469 -32.777344 C 23.382812 -32.722656 23.65625 -32.667969 23.933594 -32.667969 C 25.039062 -32.722656 25.925781 -32.113281 26.53125 -31.285156 C 27.195312 -30.511719 27.75 -29.570312 27.96875 -28.523438 C 28.523438 -26.3125 28.578125 -24.042969 27.75 -21.832031 C 26.917969 -19.511719 25.039062 -17.796875 22.164062 -17.910156 C 21.058594 -17.910156 19.898438 -17.796875 18.628906 -18.019531 C 18.40625 -22.996094 18.515625 -27.804688 18.574219 -32.777344 C 20.121094 -33 21.613281 -33.054688 23.105469 -32.777344 Z M 23.105469 -32.777344 "/></g></g></g></svg>