<svg width="75" height="75" xmlns="http://www.w3.org/2000/svg" fill="none">

 <g>
  <title>Layer 1</title>
  <circle id="svg_1" stroke="#FBC237" r="37" cy="37.5" cx="37.5"/>
  <path id="svg_2" fill="#FBC237" d="m23.04,46l0,-3.042c0.26,-0.1733 0.65,-0.416 1.17,-0.728c0.52,-0.3293 1.118,-0.702 1.794,-1.118c0.676,-0.416 1.3693,-0.8493 2.08,-1.3c0.7107,-0.4507 1.3867,-0.884 2.028,-1.3c0.6413,-0.416 1.1873,-0.7887 1.638,-1.118c0.572,-0.3987 0.962,-0.754 1.17,-1.066c0.208,-0.312 0.312,-0.6413 0.312,-0.988l0,-0.364c0,-0.3467 -0.104,-0.5893 -0.312,-0.728c-0.1907,-0.156 -0.572,-0.234 -1.144,-0.234l-1.3,0c-1.6987,0 -3.094,0.0607 -4.186,0.182c-1.0747,0.104 -2.0713,0.2167 -2.99,0.338l-0.26,-3.328c0.1213,-0.0347 0.598,-0.1127 1.43,-0.234c0.832,-0.1387 1.924,-0.26 3.276,-0.364c1.3693,-0.1213 2.886,-0.182 4.55,-0.182l0.182,0c1.4907,0 2.6607,0.1733 3.51,0.52c0.8493,0.3293 1.4473,0.7973 1.794,1.404c0.3467,0.6067 0.52,1.3173 0.52,2.132l0,0.546c0,1.2133 -0.3553,2.2013 -1.066,2.964c-0.7107,0.7627 -1.6207,1.4647 -2.73,2.106c-0.8667,0.5027 -1.6467,0.9273 -2.34,1.274c-0.676,0.3467 -1.2307,0.6413 -1.664,0.884l0,0.208l8.58,0l0,3.536l-16.042,0zm17.0757,2.08l6.734,-17.212l0.312,-1.326l4.446,0l-6.734,17.264l-0.312,1.274l-4.446,0z"/>
 </g>
</svg>